
        <svg xmlns="http://www.w3.org/2000/svg" xmlns:xlink="http://www.w3.org/1999/xlink" version="1.1" width="3272.727272727273" 
        height="2512.408011243637" viewBox="0 0 3272.727272727273 2512.408011243637">
			
			<g transform="scale(13.636363636363637) translate(10, 10)">
				<defs id="SvgjsDefs1001"><linearGradient id="SvgjsLinearGradient1011"><stop id="SvgjsStop1012" stop-color="#ef4136" offset="0"></stop><stop id="SvgjsStop1013" stop-color="#fbb040" offset="1"></stop></linearGradient><linearGradient id="SvgjsLinearGradient1014"><stop id="SvgjsStop1015" stop-color="#ef4136" offset="0"></stop><stop id="SvgjsStop1016" stop-color="#fbb040" offset="1"></stop></linearGradient></defs><g id="SvgjsG1007" featureKey="symbolFeature-0" transform="matrix(2.4425918689768698,0,0,2.4425918689768698,-12.134580773740755,-59.162643587563586)" fill="url(#SvgjsLinearGradient1011)"><path xmlns="http://www.w3.org/2000/svg" d="M37.8,69.3c0,0,19.2-5.3,35.8-17.9c-1.1,8.3-6.5,15.9-14.8,19.3C51.8,73.6,44,72.9,37.8,69.3z M53.9,58.9  C29.1,69,7.1,72.4,5.1,67.7c-1.3-3.3,7.1-10,20.6-17.2C24.8,40.2,30.6,30.1,40.6,26c12.3-5,26.4,0.9,31.5,13.2  c0.3,0.6,0.5,1.3,0.7,1.9c5.3-3.2,8.4-5.8,7.8-7.1c-0.5-1.1-2.9-1.2-7.7-0.2c-0.4,0.1-0.7-0.1-1-0.3c0,0,0,0,0,0  c-0.5-0.5-0.2-1.4,0.5-1.6c12.8-3.5,21.3-4,22.5-1C96.8,35.7,78.6,48.7,53.9,58.9z M28.3,59.4c-0.3-0.6-0.6-1.2-0.9-1.9  c-0.7-1.6-1.1-3.3-1.4-5c-5.7,3.3-9,6.1-8.5,7.4C18,61.2,22.1,60.9,28.3,59.4z"></path></g><g id="SvgjsG1008" featureKey="nameFeature-0" transform="matrix(1.607254751365927,0,0,1.607254751365927,63.91699152608188,131.62739407653442)" fill="url(#SvgjsLinearGradient1014)"><path d="M5.459 16.8945 l-0.0097656 -0.019531 c0.86914 0 1.5918 -0.72266 1.5918 -1.5918 c0 -0.67383 -0.26367 -1.1035 -0.80078 -1.2988 c-1.1328 -0.41992 -0.85938 -0.32227 -1.9629 -0.70313 c-1.1621 -0.40039 -2.2363 -1.1914 -2.959 -2.1777 c-0.42969 -0.58594 -0.64453 -1.3086 -0.64453 -2.1777 c0 -1.3086 0.46875 -2.4316 1.4063 -3.3691 s2.0605 -1.4063 3.3789 -1.4063 c1.3086 0 2.4316 0.46875 3.3691 1.4063 s1.4063 2.0605 1.4063 3.3691 l-3.1738 0 c0 -0.85938 -0.72266 -1.582 -1.582 -1.582 c-0.86914 0 -1.5918 0.72266 -1.5918 1.5918 c0 0.56641 0.22461 0.99609 0.68359 1.2891 c0.9375 0.60547 0.83008 0.48828 1.9531 0.82031 c1.2109 0.35156 2.3047 1.1035 3.0566 2.0703 c0.43945 0.56641 0.66406 1.2988 0.66406 2.1875 c0 1.3184 -0.46875 2.4414 -1.4063 3.3789 s-2.0605 1.4063 -3.3691 1.4063 c-1.3184 0 -2.4414 -0.46875 -3.3789 -1.4063 s-1.4063 -2.0605 -1.4063 -3.3789 l3.1836 0 c0 0.87891 0.71289 1.5918 1.5918 1.5918 z M11.689453125 4.257999999999999 l3.1543 0 l0 6.2988 l4.7168 0 l0 -6.2988 l3.1543 0 l0 15.742 l-3.1543 0 l0 -6.2988 l-4.7168 0 l0 6.2988 l-3.1543 0 l0 -15.742 z M29.62889375 14.7949 l2.7832 0 l-1.3867 -3.2715 z M28.33989375 17.5781 l-0.019531 -0.0097656 c-0.35156 0.80078 -0.71289 1.5918 -1.0742 2.3926 l-3.3887 0 l7.1387 -15.996 l7.1582 15.996 l-3.3984 0 c-0.35156 -0.79102 -0.70313 -1.5918 -1.0547 -2.3828 l-5.3613 0 z M39.35546875 3.965 l9.4434 8.9941 l0 -8.7012 l3.1543 0 l0 16.035 l-9.4434 -9.0039 l0 8.7109 l-3.1543 0 l0 -16.035 z M53.515625 20 l0 -15.742 l3.1543 0 l0 15.742 l-3.1543 0 z"></path></g>
			</g>
		</svg>
	